# xmcd CD database file
#
# Track frame offsets:
#	150
#	85332
#	95012
#	102935
#	109080
#	120867
#	130325
#	138510
#	145952
#	189852
#
# Disc length: 3582 seconds
#
# Revision: 3
# Processed by: cddbd v1.5.2PL0 Copyright (c) Steve Scherf et al.
# Submitted via: CDex 1.51
#
DISCID=850dfc0a
DTITLE=George Crumb - Vox Baleenae and other works  (Robert Aitken, New Music Concerts Ensemble)
DYEAR=2006
DGENRE=Contemporain
TTITLE0=Vox Baleenae for Three Masked Players  [1971]
TTITLE1=Federico's Little Song for Children - I. La Señorita del Albanico (Señorita of the Fan) [1986]
TTITLE2=Federico's Little Song for Children - II. La Tarde (Afternoon))
TTITLE3=Federico's Little Song for Children - III. Canción Cantada (A Song Sung)
TTITLE4=Federico's Little Song for Children - IV. Caracola (Snail)
TTITLE5=Federico's Little Song for Children - V. El Lagarto Está Llorando ! The Lizard is Crying)
TTITLE6=Federico's Little Song for Children - VI. Cancioncilla Sevillana (A Little Song from Seville)
TTITLE7=Federico's Little Song for Children - VII. Canción Tonta (Silly Song)
TTITLE8=An Idyll for the Misbegotten  Images III)  [1986]
TTITLE9=Eleven Echoes of Autumm (Echoes I)  for Violin, Alto Flute, Clarinet and Piano  [1965]
EXTD=YEAR: 2006
EXTT0=
EXTT1=
EXTT2=
EXTT3=
EXTT4=
EXTT5=
EXTT6=
EXTT7=
EXTT8=
EXTT9=
PLAYORDER=
